<svg width="491" height="354" viewBox="0 0 491 354" fill="none" xmlns="http://www.w3.org/2000/svg">
<path d="M400.133 23.5999C398.4 24.7999 394.933 27.9999 392.533 30.6666C390 33.4666 386 37.0666 383.467 38.7999C378.267 42.3999 374.667 47.7332 374.667 52.1332C374.667 53.7332 375.6 58.6666 376.8 62.7999C378.533 68.7999 379.6 70.6666 381.867 70.9332C384.133 71.1999 384.8 72.3999 385.067 77.4666C385.467 83.4666 385.333 83.7332 378.933 88.2666C370.933 94.1332 364.667 101.6 356.667 115.333C349.467 127.467 346.933 130.667 344.4 130.667C341.867 130.667 342.133 128.8 346.8 118.533C348.933 113.333 350.667 107.867 350.4 106.133C349.867 101.867 359.333 91.4666 365.6 89.4666C368.4 88.5332 370.933 87.3332 371.333 86.6666C371.733 85.9999 370.533 80.6666 368.667 74.7999L365.2 64.1332L356.933 69.3332C352.4 72.1332 346.533 74.9332 344 75.3332C338.8 76.2666 336 78.1332 336 80.7999C336 81.7332 334.533 83.5999 332.667 84.7999C330.8 85.9999 329.333 88.1332 329.333 89.4666C329.333 92.9332 325.333 94.6666 317.6 94.6666C307.2 94.6666 302.667 93.4666 303.733 90.7999C304.4 88.9332 304.133 88.9332 302.4 90.3999C300.533 91.8666 299.733 91.5999 297.467 89.0666C295.867 87.4666 294.8 85.1999 294.933 83.9999C295.6 80.6666 300.8 80.7999 303.333 84.2666L305.6 87.3332L304.667 83.9999C302.8 77.8666 296.8 76.6666 294.4 81.9999C293.2 84.7999 293.333 86.2666 295.067 89.9999C297.2 94.6666 297.2 94.6666 294.267 94.6666C292.667 94.6666 286.267 91.7332 280 87.9999C266.533 80.1332 262.667 79.7332 258.4 85.4666C253.867 91.5999 249.467 93.3332 238.4 93.3332C223.467 93.3332 222.933 92.9332 223.733 85.4666C224.4 77.8666 221.333 70.6666 217.333 70.6666C211.733 70.6666 209.867 83.5999 214.667 89.7332L217.333 93.1999L214.533 93.9999C208.4 95.9999 197.733 94.6666 185.333 90.3999C175.6 87.0666 172.533 85.3332 172.267 83.3332C171.333 77.9999 164.533 74.3999 154.4 73.5999C143.6 72.7999 143.2 73.1999 142 83.3332C141.6 86.9332 140.933 91.5999 140.533 93.5999C139.867 97.0666 140.133 97.3332 144.133 97.3332C146.4 97.3332 150.533 97.9999 153.2 98.7999C157.467 100.133 158.267 101.067 159.867 106.4C164.4 123.067 162.933 128.267 154.267 125.467C148.933 123.733 143.067 117.733 138 109.067C133.6 101.333 127.6 95.9999 123.2 95.9999C118 95.9999 119.467 92.3999 125.733 90.3999C130.667 88.6666 131.333 87.9999 131.733 83.8666C132 81.3332 133.067 78.3999 134.267 77.0666C136 75.1999 136 74.5332 134.267 71.7332C133.2 70.1332 131.867 65.9999 131.333 62.6666C130.8 59.3332 129.867 55.7332 129.2 54.3999C127.067 50.3999 119.333 46.6666 112.8 46.6666C108.533 46.6666 106.667 46.1332 106.667 44.9332C106.667 41.5999 101.867 38.6666 96.8 38.6666C93.0667 38.6666 90.8 39.5999 87.8667 42.5332C82.5333 47.9999 82.6667 53.5999 88.1333 57.5999C91.7333 60.2666 92.1333 61.3332 91.4667 65.1999C90.6667 70.7999 93.2 77.3332 97.8667 80.9332L101.333 83.7332L98.6667 87.0666C97.2 88.9332 93.6 90.9332 90.4 91.7332C82.8 93.7332 74.9333 100.667 67.2 112.133C57.6 126.667 53.6 137.067 42.1333 178.667C40 186.533 36.5333 190.667 27.0667 196.533C20.5333 200.533 18.2667 204 18.9333 209.067C19.4667 214.267 25.3333 214.533 34.8 209.733L42.1333 206L40.9333 209.467C40.1333 211.333 40 214 40.5333 215.333C41.3333 217.6 41.6 217.6 44.5333 214.8C46.2667 213.2 48.6667 209.333 50 206.267C51.2 203.2 53.0667 199.2 54.1333 197.333C59.7333 187.333 64.9333 174.667 71.6 155.067C79.3333 132.4 81.3333 130 81.3333 143.333C81.3333 147.067 82.2667 153.6 83.3333 157.867L85.3333 165.6L79.4667 178.533C66.2667 207.333 58.5333 227.867 49.2 258.4C44 275.867 42.6667 282 42.6667 289.867C42.6667 301.6 42.1333 302.267 26.9333 308C16.8 312 8 318.133 8 321.6C8 323.2 41.8667 322.4 45.7333 320.667C47.0667 320.133 48.6667 318.4 49.3333 316.8C50.2667 314.133 50.4 314.133 52 317.6C53.3333 320.4 54.6667 321.333 57.3333 321.333C62.5333 321.333 64.1333 318.933 62.6667 312.667C61.7333 308.667 62.1333 305.867 63.8667 300.8C65.8667 295.333 104.8 211.467 106.267 209.467C108 207.067 107.867 213.467 105.867 232.933C101.867 272.667 102.8 299.333 108.533 306.533C109.333 307.6 110 311.733 110 315.733C110 319.733 110.667 323.333 111.333 323.6C112.133 323.867 112.533 321.333 112.267 317.333L111.733 310.667H117.2C120.933 310.667 123.6 309.733 125.333 308C128.133 305.2 128.133 305.2 131.467 307.867C133.333 309.333 138 311.467 141.733 312.8C150.533 315.6 157.733 319.2 159.867 321.867C161.467 323.733 161.067 323.867 155.867 323.333C152.667 323.067 144.933 322.4 138.8 322C129.6 321.333 127.2 320.8 125.733 318.667C122.933 314.667 119.467 315.467 116.933 320.667C114.133 326.533 116.533 326.8 120 321.067L122.533 316.8L123.867 320.267C124.933 323.2 126.4 324 131.6 324.8C139.733 326.133 162.133 326.267 163.467 325.067C165.333 323.067 160.133 317.867 153.2 314.8C149.2 313.067 142.133 309.867 137.467 307.6L129.067 303.733L129.867 298.8C134.133 274.933 134.933 262.4 136 205.333C136.667 172 137.2 143.467 137.2 142.133C137.333 139.733 137.6 139.733 140.933 142.933C152 153.333 165.467 153.333 174.8 143.067C184.133 132.933 186.133 123.467 182.267 108.4C180.667 102.4 179.2 99.5999 174 92.5332C171.6 89.1999 174.133 89.4666 187.333 93.9999C202 99.0666 208.267 99.7332 215.467 96.6666C219.333 95.0666 221.333 94.9332 226.267 96.1332C232 97.5999 247.6 97.0666 252.133 95.3332C253.867 94.6666 254.8 95.5999 256 99.3332C260.533 113.2 273.333 116.667 273.333 104C273.333 100.267 265.2 91.9999 261.6 91.9999C257.333 91.9999 256.533 89.1999 260 86.3999C263.733 83.3332 265.733 83.8666 278.667 91.4666C287.6 96.6666 289.6 97.1999 298 97.4666C303.2 97.5999 310.4 97.7332 314 97.8666C317.733 97.8666 323.067 97.5999 326 97.0666C330.533 96.2666 331.6 96.5332 333.067 98.7999C334.533 101.2 334.267 102.133 330.8 106C326.133 111.467 324 118 324 127.733C324 153.467 353.733 162.533 368 140.933L372.667 134L373.867 145.333C374.667 152.933 374.533 161.2 373.467 170.667C368.133 217.733 364.533 280.933 366.133 295.467L366.933 302.133L359.2 305.6C354.8 307.6 348 310.4 344 312C340 313.467 335.6 316 334.267 317.6C332.133 320.133 332.133 320.667 333.867 322.4C335.333 324 339.6 324.533 351.333 324.8C364.667 324.933 367.2 324.667 369.867 322.533C372.533 320.4 373.2 320.267 373.867 322C374.8 324.533 380 324.533 383.333 322.267C385.333 320.8 385.6 319.333 384.8 314.8C384.267 311.2 384.667 307.2 385.867 303.467C386.933 300.267 389.733 281.2 392 261.2C397.6 210.533 400 196.4 402.667 198C404.4 199.067 405.067 206.533 406.667 239.467C407.467 255.6 408.933 276.933 410 286.667C411.2 296.533 411.867 308.133 411.733 312.4C411.467 320.933 412.533 322.667 418.933 322.667C421.2 322.667 423.333 321.6 424.267 320C426 317.333 429.333 316.267 429.333 318.533C429.333 321.733 455.867 324.933 462.267 322.533C465.6 321.333 465.6 321.2 463.333 318.667C462.133 317.333 456.4 314.267 450.8 311.867C445.2 309.6 438.667 306.267 436.267 304.4L431.733 301.067L432.533 287.467C432.933 280.133 433.733 249.733 434.133 220C434.667 187.067 435.467 165.333 436.267 164.4C436.933 163.467 438.4 160.133 439.333 157.067L440.933 151.333L450.933 151.733C459.067 152.133 462 151.733 466.533 149.467C472.8 146.133 478.133 138.933 479.467 131.6C483.333 110 453.067 86.9332 417.733 84.3999C407.467 83.5999 406.667 83.3332 406.667 80.6666C406.667 78.7999 408.133 77.1999 411.2 75.7332C415.333 73.7332 415.733 73.0666 416.267 65.7332C416.8 59.5999 416.533 57.3332 414.533 54.7999C413.067 53.0666 412 50.3999 412 48.7999C412 47.3332 411.467 45.1999 410.8 44.1332C410 42.9332 410.667 40.7999 412.8 37.5999C416.667 31.9999 416.933 26.5332 413.6 23.5999C410.4 20.6666 404.133 20.6666 400.133 23.5999ZM408.8 47.5999C409.2 50.3999 410.667 53.8666 412 55.3332C413.867 57.4666 414.267 59.4666 413.733 65.1999C413.067 71.4666 412.533 72.5332 408.533 74.9332C405.067 76.9332 404 78.5332 404 81.3332C404 84.5332 403.2 85.3332 399.2 86.6666C396.667 87.5999 393.067 87.8666 391.2 87.4666C388.133 86.6666 388 86.2666 388.8 79.3332C389.733 71.9999 389.733 71.9999 385.467 70.5332C379.6 68.3999 380.133 63.9999 386.667 61.9999C391.333 60.5332 393.2 58.9332 396.133 53.0666C401.733 41.9999 407.333 39.5999 408.8 47.5999ZM130.8 71.7332C132.8 74.2666 132.933 75.4666 131.867 76.7999C131.067 77.8666 129.867 80.6666 129.467 82.9332C128.8 86.3999 127.6 87.4666 124.133 88.5332C121.333 89.3332 118.667 91.3332 117.467 93.5999C115.067 97.7332 109.6 98.6666 103.333 95.7332C99.3333 93.8666 99.2 92.5332 102.667 87.3332C105.867 82.5332 106 79.5999 103.333 77.3332C100.4 74.7999 100.933 71.9999 104.4 71.9999C108.133 71.9999 118 65.8666 123.333 60.1332L127.333 55.7332L127.733 62.1332C128 65.8666 129.2 69.8666 130.8 71.7332ZM155.6 79.5999C155.2 80.9332 154.933 80.1332 154.933 77.9999C154.933 75.7332 155.2 74.7999 155.6 75.5999C155.867 76.5332 155.867 78.3999 155.6 79.5999ZM220.533 77.5999C223.333 81.4666 223.333 89.3332 220.667 89.3332C217.467 89.3332 213.333 84.2666 213.333 80.2666C213.333 73.8666 217.067 72.5332 220.533 77.5999ZM159.6 78.9332C159.2 79.9999 158.8 79.5999 158.8 78.1332C158.667 76.6666 159.067 75.8666 159.467 76.3999C159.867 76.7999 160 77.9999 159.6 78.9332ZM164.933 82.2666C164.533 83.5999 164.267 82.5332 164.267 79.9999C164.267 77.4666 164.533 76.3999 164.933 77.5999C165.2 78.9332 165.2 81.0666 164.933 82.2666ZM347.6 78.9332C347.2 79.9999 346.8 79.5999 346.8 78.1332C346.667 76.6666 347.067 75.8666 347.467 76.3999C347.867 76.7999 348 77.9999 347.6 78.9332ZM343.6 80.2666C343.2 81.3332 342.8 80.9332 342.8 79.4666C342.667 77.9999 343.067 77.1999 343.467 77.7332C343.867 78.1332 344 79.3332 343.6 80.2666ZM339.6 83.5999C339.2 84.9332 338.933 84.1332 338.933 81.9999C338.933 79.7332 339.2 78.7999 339.6 79.5999C339.867 80.5332 339.867 82.3999 339.6 83.5999ZM434.933 90.1332C453.867 95.7332 474.133 111.2 476.8 122C478.533 128.8 476.8 136.933 472.933 141.067C468.667 145.867 462.4 148 453.467 148C444.8 148 442.667 146.4 442.667 139.6C442.667 136.8 443.467 136.267 448.133 135.467C454.133 134.533 461.333 128.533 461.333 124.4C461.333 120 457.467 116.267 450 113.467C433.6 107.333 429.333 110.267 429.333 127.733C429.333 137.333 428.933 139.467 426 143.733C421.2 150.8 421.733 156 426.8 153.2C429.733 151.733 429.867 152 427.867 156.533C427.067 158.267 424.8 160.133 423.067 160.667C418.133 161.867 399.6 161.2 397.733 159.733C396.4 158.667 396 150 396 124.933C396 98.9332 396.4 91.8666 397.6 93.0666C400.4 95.8666 403.867 94.7999 406.133 90.5332L408.267 86.2666L418 87.1999C423.467 87.7332 431.067 89.0666 434.933 90.1332ZM385.333 89.8666C385.333 90.9332 386.533 93.0666 388 94.7999C390.267 97.5999 390.8 97.7332 392 95.9999C392.933 94.6666 393.333 104.4 393.333 126.933C393.333 149.333 392.933 160 391.867 160C391.2 160 387.867 159.333 384.533 158.533C378.667 157.067 378.667 156.933 378.4 150.8C378.267 147.467 378.4 140.667 378.533 135.6C378.933 127.467 378.667 126.667 376.4 126.667C374.533 126.667 371.733 129.733 367.467 136C360.133 147.067 355.067 150.667 346.667 150.667C334.533 150.667 327.333 142 327.467 127.333C327.467 122.133 328.4 117.333 330.133 114C332.533 108.933 332.933 108.667 338.933 108.8C342.4 108.8 345.733 109.2 346.267 109.733C346.8 110.267 345.6 114 343.6 118.133C339.067 127.333 339.067 130.4 343.467 132C345.333 132.8 347.067 133.333 347.333 133.333C348.933 133.333 354.4 125.867 361.067 114.667C371.467 97.3332 385.333 83.0666 385.333 89.8666ZM391.333 89.3332C391.733 89.9999 391.733 91.3332 391.2 92.1332C390.4 93.5999 388.133 91.3332 388 88.9332C388 87.5999 390.4 87.7332 391.333 89.3332ZM401.733 90.7999C400.933 91.5999 399.467 91.8666 398.533 91.1999C397.333 90.5332 397.467 89.9999 399.467 89.3332C402.533 88.1332 403.6 88.9332 401.733 90.7999ZM157.733 96.1332C159.333 96.1332 159.867 96.5332 158.933 96.9332C156.267 97.9999 149.467 94.6666 147.733 91.4666C146.533 89.1999 146.933 89.3332 150.533 92.3999C152.933 94.3999 156.133 95.9999 157.733 96.1332ZM352.667 95.9999C350.533 98.1332 347.733 99.9999 346.533 99.9999C340.667 99.9999 337.333 96.1332 343.067 95.8666C344.667 95.8666 348.133 95.0666 350.667 94.1332C353.2 93.0666 355.6 92.2666 355.867 92.1332C356.267 92.1332 354.8 93.7332 352.667 95.9999ZM100.8 97.5999C104.667 100.8 110.8 101.333 119.733 99.3332C125.2 98.1332 128.667 100.933 135.467 112.267C142.133 123.067 150 129.6 156 129.067C159.867 128.8 161.067 127.733 163.333 123.733L165.867 118.8L162.933 109.733C159.467 98.6666 159.467 99.3332 162.133 96.7999C165.2 93.5999 171.067 94.1332 174.533 97.8666C180.133 103.867 183.2 121.467 180 129.867C178 135.067 169.867 143.333 164.133 146C156.933 149.2 150.8 147.867 143.2 141.333C139.867 138.4 136.667 136 136.133 136C135.067 136 133.333 148.667 133.333 156.8C133.333 160.667 132.8 161.333 128.4 162.933C120.8 165.467 91.4667 165.333 88.6667 162.667C87.4667 161.333 86.1333 156 85.2 148.667C83.4667 134.133 82.1333 130.267 78.9333 130.933C77.3333 131.2 74.8 136.4 70.2667 148.667C59.3333 178.4 54.4 190.533 51.7333 193.333C50.4 194.8 49.6 196.667 50 197.333C50.8 198.667 44.1333 212.667 43.2 211.6C42.8 211.2 43.0667 209.733 43.8667 208.267C47.4667 201.6 44.2667 200.933 35.0667 206.667C28.2667 210.8 21.3333 213.067 21.3333 211.067C21.3333 210.4 24.8 208.133 29.0667 206C34.1333 203.467 35.8667 202 34.2667 201.6C33.0667 201.333 32.2667 200.533 32.6667 199.867C33.7333 198.267 32.4 198.4 29.0667 200.133C24.6667 202.533 27.2 199.6 33.7333 195.067C39.6 190.8 39.7333 190.8 42 193.333C43.3333 194.8 45.0667 196 45.7333 196C46.5333 196 46 194.8 44.8 193.467C42.5333 190.933 42.5333 190.133 46.5333 174.4C57.0667 133.333 66.5333 112.8 81.2 99.5999C87.8667 93.5999 94.6667 92.9332 100.8 97.5999ZM268.267 99.5999C274.8 105.733 271.733 112.133 264.533 107.467C261.333 105.333 256 97.8666 256 95.4666C256 93.1999 264.667 96.1332 268.267 99.5999ZM347.6 103.333C348.667 106.267 348 106.533 341.467 105.733C336.133 105.067 335.867 104.8 338 103.067C341.333 100.667 346.533 100.8 347.6 103.333ZM446.933 116.133C464.267 122.933 462.267 130.267 442.533 132.8C438.533 133.333 434.533 134.267 433.733 135.067C432.4 136 432 134.133 432 126.4C432 112.4 434 111.067 446.933 116.133ZM440 138.933C440 140.667 440.4 143.467 440.933 145.333C441.733 148.267 441.467 148.4 439.733 146.933C437.333 144.933 435.467 139.2 436.667 137.333C438.133 134.933 440 136 440 138.933ZM436.933 148.933C438.4 150 438.667 151.6 438 154.8L437.067 159.2L435.467 155.333L433.867 151.467L431.467 157.733C430.133 161.2 428.533 164.267 427.867 164.8C427.2 165.2 428 162.267 429.467 158.4C434.933 145.2 434 139.067 428.133 148.267C424.133 154.667 424.667 151.333 428.933 144.133L432.533 138L433.733 142.667C434.267 145.2 435.733 148 436.933 148.933ZM26.6667 204.533C26.6667 204.8 25.7333 205.467 24.5333 205.867C23.4667 206.267 22.9333 206.133 23.3333 205.333C24.1333 204 26.6667 203.467 26.6667 204.533ZM45.3333 303.867C45.3333 305.733 52.9333 308.267 55.8667 307.333C58.1333 306.667 58.9333 307.2 60 310.133C62.9333 317.867 58.2667 323.867 54.9333 316.667C53.0667 312.667 48.9333 312.267 46.4 315.867C44.8 318.133 42.2667 318.533 27.3333 319.333L10 320.133L13.3333 317.467C15.2 316 20.2667 313.467 24.6667 312C29.0667 310.533 35.0667 307.867 38 306.133C44 302.533 45.3333 302.133 45.3333 303.867ZM438 307.333C442.267 309.867 449.2 313.333 453.6 314.933C461.867 318.267 462.933 319.333 458.667 320.667C455.067 321.867 432 320 432 318.533C432 317.867 430.8 316.8 429.2 315.867C426.8 314.667 425.867 314.933 422.8 317.867C420.8 319.733 418.533 321.333 417.6 321.333C414.933 321.333 413.2 316.267 414.133 310.8C414.933 305.733 415.067 305.6 418.933 306.933C422.267 308.133 423.467 307.867 426.4 305.6C428.4 304 430.133 302.8 430.133 302.8C430.267 302.667 433.867 304.8 438 307.333ZM378 308C381.6 308.667 382 309.333 382.4 314.267C382.8 318.933 382.4 319.867 379.867 320.667C377.867 321.333 376.533 320.933 375.733 319.467C374.133 316.533 369.733 316.8 368 320C366.667 322.4 365.2 322.667 351.333 322.667C338.4 322.667 336 322.4 336 320.533C336 319.333 338.8 317.333 343.067 315.467C368.267 304.533 368.667 304.4 371.333 305.733C372.8 306.533 375.867 307.467 378 308Z" fill="#4C34E2"/>
</svg>
