<svg width="490" height="531" viewBox="0 0 490 531" fill="none" xmlns="http://www.w3.org/2000/svg">
<path d="M246.731 2.40003C241.139 4.53336 241.005 4.6667 241.005 10.8C241.005 14.2667 242.47 22 244.201 28L247.264 38.8L244.467 40C234.614 43.7334 230.353 45.7334 230.753 46.1334C231.019 46.4 237.41 44.1334 244.867 41.2C252.856 38 259.114 36.2667 259.78 36.9334C261.644 38.8 266.304 53.4667 266.304 57.4667C266.304 64.4 275.625 67.8667 280.285 62.6667C283.082 59.4667 282.682 56.2667 277.09 42C274.826 36.1334 272.962 30.9334 272.962 30.5334C272.962 30.1334 274.294 29.0667 276.025 28.2667C278.821 26.8 278.821 26.8 275.359 27.4667C272.163 28.1334 271.497 27.6 267.902 19.7334C262.976 9.4667 256.185 3.00078e-05 253.921 0.133363C253.122 0.133363 249.794 1.20003 246.731 2.40003ZM257.65 5.60003C263.908 13.0667 275.492 38.6667 278.688 52.1334C279.486 55.2 278.954 55.8667 275.625 57.3334C273.361 58.2667 271.364 58.8 271.098 58.5334C270.832 58.2667 268.967 52.9334 266.97 46.6667C262.709 33.4667 253.389 14.1334 248.462 8.2667L245 4.2667L248.595 2.93336C253.921 0.933363 253.788 0.933363 257.65 5.60003Z" fill="#4C34E2"/>
<path d="M307.848 14.2666C303.188 16.1333 299.726 17.8666 299.992 18.1333C300.258 18.4 303.986 17.2 308.381 15.4666C314.106 13.2 316.503 12.6666 317.169 13.7333C317.967 14.9333 318.234 14.9333 318.234 13.7333C318.234 10.8 316.236 10.9333 307.848 14.2666Z" fill="#4C34E2"/>
<path d="M318.367 16.6667C318.367 17.3333 320.098 21.3333 322.228 25.3333C324.359 29.3333 326.09 32 326.09 31.3333C326.09 30.5333 324.359 26.6667 322.228 22.6667C320.098 18.6667 318.367 15.8667 318.367 16.6667Z" fill="#4C34E2"/>
<path d="M294.266 20C293.201 20.6667 292.935 21.3334 293.601 21.3334C294.399 21.3334 295.864 20.6667 296.929 20C297.995 19.3334 298.394 18.6667 297.595 18.6667C296.929 18.6667 295.331 19.3334 294.266 20Z" fill="#4C34E2"/>
<path d="M287.609 22.6667C286.543 23.3333 286.277 24 286.943 24C287.742 24 289.207 23.3333 290.272 22.6667C291.337 22 291.736 21.3333 290.937 21.3333C290.272 21.3333 288.674 22 287.609 22.6667Z" fill="#4C34E2"/>
<path d="M280.951 25.3333C279.886 26 279.62 26.6666 280.285 26.6666C281.084 26.6666 282.549 26 283.614 25.3333C284.679 24.6666 285.079 24 284.28 24C283.614 24 282.016 24.6666 280.951 25.3333Z" fill="#4C34E2"/>
<path d="M177.492 30.6667C172.698 32.8 171.766 33.8667 171.766 37.0667C171.766 40.1333 174.163 50.8 178.024 64.2667C178.557 66 177.226 67.2 173.231 68.8C170.168 70 167.905 71.2 168.171 71.4667C168.437 71.7333 173.231 70.1333 178.957 68C184.549 65.7333 189.742 64 190.408 64C192.139 64 197.065 78.1333 197.065 83.3333C197.065 92 205.587 96.1333 211.579 90.5333C215.174 87.2 215.041 86.5333 208.649 70L204.122 58L206.918 56.2667C209.582 54.6667 209.582 54.6667 206.386 55.3333C203.323 55.8667 202.658 55.0667 198.53 46.5333C194.003 36.8 187.212 27.8667 184.549 28.1333C183.75 28.1333 180.554 29.3333 177.492 30.6667ZM192.538 38.4C198.264 47.0667 208.117 70.4 209.715 79.0667C210.647 83.6 210.38 84.1333 206.918 85.3333C204.921 86.1333 202.924 86.2667 202.391 85.7333C201.992 85.2 200.128 80.1333 198.53 74.6667C194.535 61.8667 188.011 47.8667 182.152 39.0667C177.492 32.4 177.492 32.2667 180.288 30.8C184.948 28.5333 186.812 29.7333 192.538 38.4Z" fill="#4C34E2"/>
<path d="M326.756 34.6666C327.821 38.4 339.938 64 340.47 63.6C340.736 63.2 337.674 56.2666 333.546 47.8666C329.552 39.4666 326.489 33.6 326.756 34.6666Z" fill="#4C34E2"/>
<path d="M225.027 48C223.962 48.6667 223.696 49.3334 224.362 49.3334C225.16 49.3334 226.625 48.6667 227.69 48C228.756 47.3334 229.155 46.6667 228.356 46.6667C227.69 46.6667 226.092 47.3334 225.027 48Z" fill="#4C34E2"/>
<path d="M218.37 50.6667C217.304 51.3333 217.038 52 217.704 52C218.503 52 219.967 51.3333 221.033 50.6667C222.098 50 222.497 49.3333 221.698 49.3333C221.033 49.3333 219.435 50 218.37 50.6667Z" fill="#4C34E2"/>
<path d="M211.712 53.3333C210.647 54 210.38 54.6666 211.046 54.6666C211.845 54.6666 213.31 54 214.375 53.3333C215.44 52.6666 215.84 52 215.041 52C214.375 52 212.777 52.6666 211.712 53.3333Z" fill="#4C34E2"/>
<path d="M108.918 58.2666C104.125 60.2666 103.859 60.6666 103.859 66.6666C103.859 71.8666 106.788 84.1333 109.984 92.6666C110.383 93.6 108.253 95.2 104.524 96.6666C101.196 97.8666 98.6658 99.2 98.9321 99.4666C99.1984 99.7333 104.658 98 111.049 95.4666C119.038 92.2666 122.899 91.3333 123.166 92.4C127.16 103.333 128.891 109.6 128.226 111.867C127.16 116 133.685 121.867 138.212 120.667C145.935 118.8 146.467 114.933 140.742 100C135.016 84.8 135.016 85.6 141.141 83.2C144.071 82 146.334 80.8 146.068 80.5333C145.802 80.1333 143.405 80.9333 140.742 82C138.079 83.0666 135.682 84 135.283 84C135.016 84 133.019 80.2666 130.755 75.6C125.563 64.6666 119.038 56 116.109 56.1333C114.91 56.2666 111.582 57.2 108.918 58.2666ZM122.367 63.6C127.56 71.4666 133.152 83.0666 137.413 95.3333C143.005 110.933 143.005 111.467 138.478 113.333C136.215 114.267 134.217 114.8 133.951 114.533C133.685 114.267 131.954 108.933 129.823 102.667C125.03 87.8666 116.774 70.5333 111.848 64.8L107.853 60.2666L111.448 58.9333C117.44 56.6666 117.973 57.0666 122.367 63.6Z" fill="#4C34E2"/>
<path d="M341.003 66C341.003 66.6666 342.734 70.6666 344.864 74.6666C346.995 78.6666 348.726 81.3333 348.726 80.6666C348.726 79.8666 346.995 76 344.864 72C342.734 68 341.003 65.2 341.003 66Z" fill="#4C34E2"/>
<path d="M162.446 73.3333C161.381 74 161.114 74.6666 161.78 74.6666C162.579 74.6666 164.044 74 165.109 73.3333C166.174 72.6666 166.573 72 165.775 72C165.109 72 163.511 72.6666 162.446 73.3333Z" fill="#4C34E2"/>
<path d="M155.788 75.9999C154.723 76.6666 154.457 77.3333 155.122 77.3333C155.921 77.3333 157.386 76.6666 158.451 75.9999C159.516 75.3333 159.916 74.6666 159.117 74.6666C158.451 74.6666 156.853 75.3333 155.788 75.9999Z" fill="#4C34E2"/>
<path d="M149.131 78.6667C148.065 79.3333 147.799 80 148.465 80C149.264 80 150.728 79.3333 151.794 78.6667C152.859 78 153.258 77.3333 152.459 77.3333C151.794 77.3333 150.196 78 149.131 78.6667Z" fill="#4C34E2"/>
<path d="M349.391 84C350.457 87.7334 362.573 113.333 363.106 112.933C363.372 112.533 360.31 105.6 356.182 97.2C352.188 88.8 349.125 82.9334 349.391 84Z" fill="#4C34E2"/>
<path d="M39.9456 86.4C33.8206 89.4667 33.4212 93.8667 37.9484 109.733C41.4103 121.733 41.144 123.867 36.75 124C36.0842 124 35.8179 124.267 36.2174 124.667C36.4837 125.067 40.6114 123.867 45.2717 122C49.9321 120.133 53.7935 118.8 53.9266 119.067C55.5244 120.933 59.9185 135.733 59.9185 139.067C59.9185 144.4 61.1168 146.133 65.2446 147.733C69.5054 149.333 73.8994 147.733 76.0299 143.867C77.2282 141.467 77.2282 140.133 75.4973 136.8C74.2989 134.533 71.9022 128.267 70.038 122.933L66.7092 113.2L72.0353 111.067C74.9647 110 77.0951 108.8 76.8288 108.533C76.5625 108.133 74.0326 108.933 71.2364 110C68.5734 111.2 66.1766 112 66.0435 111.733C65.9103 111.467 63.5136 106.8 60.8505 101.333C55.2581 90.1333 50.3315 84 46.8696 84C45.6712 84.1333 42.4755 85.2 39.9456 86.4ZM52.4619 89.6C59.1196 98.4 73.2337 131.333 73.2337 138C73.2337 140 66.4429 143.2 65.2446 141.733C64.8451 141.2 63.3804 137.2 62.0489 132.8C58.3206 120.533 50.9973 104.267 45.2717 95.7333C40.0788 88 40.0788 87.8667 43.0081 86.6667C47.8016 84.8 49 85.0667 52.4619 89.6Z" fill="#4C34E2"/>
<path d="M93.2066 101.333C92.1414 102 91.8751 102.667 92.5408 102.667C93.3397 102.667 94.8044 102 95.8696 101.333C96.9348 100.667 97.3343 100 96.5354 100C95.8696 100 94.2718 100.667 93.2066 101.333Z" fill="#4C34E2"/>
<path d="M86.549 104C85.4838 104.667 85.2175 105.333 85.8832 105.333C86.6821 105.333 88.1468 104.667 89.212 104C90.2773 103.333 90.6767 102.667 89.8778 102.667C89.212 102.667 87.6142 103.333 86.549 104Z" fill="#4C34E2"/>
<path d="M79.8913 106.667C78.8261 107.333 78.5598 108 79.2255 108C80.0244 108 81.4891 107.333 82.5543 106.667C83.6195 106 84.019 105.333 83.2201 105.333C82.5543 105.333 80.9565 106 79.8913 106.667Z" fill="#4C34E2"/>
<path d="M364.038 116C365.103 119.733 377.22 145.333 377.753 144.933C378.019 144.533 374.957 137.6 370.829 129.2C366.834 120.8 363.772 114.933 364.038 116Z" fill="#4C34E2"/>
<path d="M262.31 118.667C261.245 119.333 260.978 120 261.644 120C262.443 120 263.908 119.333 264.973 118.667C266.038 118 266.438 117.333 265.639 117.333C264.973 117.333 263.375 118 262.31 118.667Z" fill="#4C34E2"/>
<path d="M255.652 121.333C254.587 122 254.321 122.667 254.986 122.667C255.785 122.667 257.25 122 258.315 121.333C259.38 120.667 259.78 120 258.981 120C258.315 120 256.717 120.667 255.652 121.333Z" fill="#4C34E2"/>
<path d="M248.995 124C247.929 124.667 247.663 125.333 248.329 125.333C249.128 125.333 250.592 124.667 251.658 124C252.723 123.333 253.122 122.667 252.323 122.667C251.658 122.667 250.06 123.333 248.995 124Z" fill="#4C34E2"/>
<path d="M30.625 126.667C29.5598 127.333 29.2935 128 29.9593 128C30.7582 128 32.2229 127.333 33.2881 126.667C34.3533 126 34.7528 125.333 33.9538 125.333C33.2881 125.333 31.6903 126 30.625 126.667Z" fill="#4C34E2"/>
<path d="M231.285 130.933C224.095 133.867 218.503 136.533 218.769 136.8C219.302 137.333 244.867 127.2 246.065 126C247.53 124.533 243.668 125.867 231.285 130.933Z" fill="#4C34E2"/>
<path d="M23.9674 129.333C22.9022 130 22.6359 130.667 23.3017 130.667C24.1006 130.667 25.5653 130 26.6305 129.333C27.6957 128.667 28.0952 128 27.2963 128C26.6305 128 25.0327 128.667 23.9674 129.333Z" fill="#4C34E2"/>
<path d="M17.3099 132C16.2446 132.667 15.9783 133.333 16.6441 133.333C17.443 133.333 18.9077 132.667 19.9729 132C21.0381 131.333 21.4376 130.667 20.6387 130.667C19.9729 130.667 18.3751 131.333 17.3099 132Z" fill="#4C34E2"/>
<path d="M7.856 135.6C3.32883 137.467 2.92937 138 1.59785 146.133L0.133179 154.8L86.1495 342.4C133.419 445.6 172.565 530.4 172.965 530.933C173.63 531.733 335.277 466.933 482.144 407.2C486.538 405.333 486.938 404.667 488.535 396.667C490 388.533 489.867 387.733 486.804 381.733C484.94 378.133 483.476 375.867 483.342 376.4C483.342 376.933 484.541 379.733 486.005 382.533C487.87 386.4 488.136 387.867 486.938 388.4C486.005 388.8 416.234 417.067 331.682 451.2C247.13 485.467 177.492 512.933 176.959 512.4C175.628 510.933 4.92666 138.533 5.45927 138.267C5.72557 138 8.12231 136.933 10.6522 135.733C16.3777 132.933 14.3805 132.933 7.856 135.6ZM90.4104 328.267C173.098 508.667 175.761 514.667 174.962 520.533C174.429 523.867 173.63 526.667 173.098 526.667C172.565 526.667 133.818 442.8 86.8152 340.267L1.4647 154L2.79622 147.6C3.59514 144 4.39405 141.333 4.66035 141.6C4.7935 141.867 43.4076 225.867 90.4104 328.267Z" fill="#4C34E2"/>
<path d="M213.043 138.667C211.978 139.333 211.712 140 212.378 140C213.177 140 214.641 139.333 215.707 138.667C216.772 138 217.171 137.333 216.372 137.333C215.707 137.333 214.109 138 213.043 138.667Z" fill="#4C34E2"/>
<path d="M206.386 141.333C205.321 142 205.054 142.667 205.72 142.667C206.519 142.667 207.984 142 209.049 141.333C210.114 140.667 210.514 140 209.715 140C209.049 140 207.451 140.667 206.386 141.333Z" fill="#4C34E2"/>
<path d="M199.728 144C198.663 144.667 198.397 145.333 199.063 145.333C199.861 145.333 201.326 144.667 202.391 144C203.457 143.333 203.856 142.667 203.057 142.667C202.391 142.667 200.794 143.333 199.728 144Z" fill="#4C34E2"/>
<path d="M193.071 146.667C192.006 147.333 191.739 148 192.405 148C193.204 148 194.669 147.333 195.734 146.667C196.799 146 197.198 145.333 196.4 145.333C195.734 145.333 194.136 146 193.071 146.667Z" fill="#4C34E2"/>
<path d="M378.285 147.333C378.285 148 380.016 152 382.147 156C384.277 160 386.008 162.667 386.008 162C386.008 161.2 384.277 157.333 382.147 153.333C380.016 149.333 378.285 146.533 378.285 147.333Z" fill="#4C34E2"/>
<path d="M186.413 149.333C185.348 150 185.081 150.667 185.747 150.667C186.546 150.667 188.011 150 189.076 149.333C190.141 148.667 190.541 148 189.742 148C189.076 148 187.478 148.667 186.413 149.333Z" fill="#4C34E2"/>
<path d="M168.704 156.267C161.514 159.2 155.921 161.867 156.187 162.133C156.72 162.667 182.285 152.533 183.484 151.333C184.948 149.867 181.087 151.2 168.704 156.267Z" fill="#4C34E2"/>
<path d="M150.462 164C149.397 164.667 149.13 165.333 149.796 165.333C150.595 165.333 152.06 164.667 153.125 164C154.19 163.333 154.59 162.667 153.791 162.667C153.125 162.667 151.527 163.333 150.462 164Z" fill="#4C34E2"/>
<path d="M267.636 165.333C266.571 166 266.304 166.667 266.97 166.667C267.769 166.667 269.234 166 270.299 165.333C271.364 164.667 271.764 164 270.965 164C270.299 164 268.701 164.667 267.636 165.333Z" fill="#4C34E2"/>
<path d="M386.674 165.333C387.739 169.067 399.856 194.667 400.389 194.267C400.655 193.867 397.592 186.933 393.465 178.533C389.47 170.133 386.408 164.267 386.674 165.333Z" fill="#4C34E2"/>
<path d="M143.804 166.667C142.739 167.333 142.473 168 143.139 168C143.938 168 145.402 167.333 146.467 166.667C147.533 166 147.932 165.333 147.133 165.333C146.467 165.333 144.87 166 143.804 166.667Z" fill="#4C34E2"/>
<path d="M260.978 168C259.913 168.667 259.647 169.333 260.313 169.333C261.111 169.333 262.576 168.667 263.641 168C264.707 167.333 265.106 166.667 264.307 166.667C263.641 166.667 262.044 167.333 260.978 168Z" fill="#4C34E2"/>
<path d="M137.147 169.333C136.082 170 135.815 170.667 136.481 170.667C137.28 170.667 138.745 170 139.81 169.333C140.875 168.667 141.274 168 140.476 168C139.81 168 138.212 168.667 137.147 169.333Z" fill="#4C34E2"/>
<path d="M254.321 170.667C253.255 171.333 252.989 172 253.655 172C254.454 172 255.918 171.333 256.984 170.667C258.049 170 258.448 169.333 257.649 169.333C256.984 169.333 255.386 170 254.321 170.667Z" fill="#4C34E2"/>
<path d="M130.489 172C129.424 172.667 129.158 173.333 129.823 173.333C130.622 173.333 132.087 172.667 133.152 172C134.217 171.333 134.617 170.667 133.818 170.667C133.152 170.667 131.554 171.333 130.489 172Z" fill="#4C34E2"/>
<path d="M236.611 177.6C229.421 180.533 223.829 183.2 224.095 183.467C224.628 184 250.193 173.867 251.391 172.667C252.856 171.2 248.995 172.533 236.611 177.6Z" fill="#4C34E2"/>
<path d="M123.832 174.667C122.766 175.333 122.5 176 123.166 176C123.965 176 125.429 175.333 126.495 174.667C127.56 174 127.959 173.333 127.16 173.333C126.495 173.333 124.897 174 123.832 174.667Z" fill="#4C34E2"/>
<path d="M117.174 177.333C116.109 178 115.842 178.667 116.508 178.667C117.307 178.667 118.772 178 119.837 177.333C120.902 176.667 121.302 176 120.503 176C119.837 176 118.239 176.667 117.174 177.333Z" fill="#4C34E2"/>
<path d="M99.4648 184.267C92.2745 187.2 86.6822 189.867 86.9485 190.133C87.4811 190.667 113.046 180.533 114.245 179.333C115.709 177.867 111.848 179.2 99.4648 184.267Z" fill="#4C34E2"/>
<path d="M218.37 185.333C217.304 186 217.038 186.667 217.704 186.667C218.503 186.667 219.967 186 221.033 185.333C222.098 184.667 222.497 184 221.698 184C221.033 184 219.435 184.667 218.37 185.333Z" fill="#4C34E2"/>
<path d="M211.712 188C210.647 188.667 210.38 189.333 211.046 189.333C211.845 189.333 213.31 188.667 214.375 188C215.44 187.333 215.84 186.667 215.041 186.667C214.375 186.667 212.777 187.333 211.712 188Z" fill="#4C34E2"/>
<path d="M328.886 189.333C327.821 190 327.554 190.667 328.22 190.667C329.019 190.667 330.484 190 331.549 189.333C332.614 188.667 333.014 188 332.215 188C331.549 188 329.951 188.667 328.886 189.333Z" fill="#4C34E2"/>
<path d="M205.054 190.667C203.989 191.333 203.723 192 204.389 192C205.188 192 206.652 191.333 207.717 190.667C208.783 190 209.182 189.333 208.383 189.333C207.717 189.333 206.12 190 205.054 190.667Z" fill="#4C34E2"/>
<path d="M81.2228 192C80.1576 192.667 79.8913 193.333 80.5571 193.333C81.356 193.333 82.8206 192.667 83.8859 192C84.9511 191.333 85.3505 190.667 84.5516 190.667C83.8859 190.667 82.288 191.333 81.2228 192Z" fill="#4C34E2"/>
<path d="M322.228 192C321.163 192.667 320.897 193.333 321.563 193.333C322.361 193.333 323.826 192.667 324.891 192C325.957 191.333 326.356 190.667 325.557 190.667C324.891 190.667 323.294 191.333 322.228 192Z" fill="#4C34E2"/>
<path d="M198.397 193.333C197.332 194 197.065 194.667 197.731 194.667C198.53 194.667 199.995 194 201.06 193.333C202.125 192.667 202.524 192 201.726 192C201.06 192 199.462 192.667 198.397 193.333Z" fill="#4C34E2"/>
<path d="M74.5652 194.667C73.5 195.333 73.2337 196 73.8995 196C74.6984 196 76.1631 195.333 77.2283 194.667C78.2935 194 78.6929 193.333 77.894 193.333C77.2283 193.333 75.6304 194 74.5652 194.667Z" fill="#4C34E2"/>
<path d="M307.848 197.6C302.522 199.867 298.394 201.867 298.66 202.133C299.193 202.667 318.234 195.2 319.432 194C320.764 192.533 317.169 193.733 307.848 197.6Z" fill="#4C34E2"/>
<path d="M191.739 196C190.674 196.667 190.408 197.333 191.073 197.333C191.872 197.333 193.337 196.667 194.402 196C195.467 195.333 195.867 194.667 195.068 194.667C194.402 194.667 192.804 195.333 191.739 196Z" fill="#4C34E2"/>
<path d="M67.9076 197.333C66.8424 198 66.5761 198.667 67.2419 198.667C68.0408 198.667 69.5055 198 70.5707 197.333C71.6359 196.667 72.0354 196 71.2364 196C70.5707 196 68.9729 196.667 67.9076 197.333Z" fill="#4C34E2"/>
<path d="M400.921 196.667C400.921 197.333 402.652 201.333 404.783 205.333C406.913 209.333 408.644 212 408.644 211.333C408.644 210.533 406.913 206.667 404.783 202.667C402.652 198.667 400.921 195.867 400.921 196.667Z" fill="#4C34E2"/>
<path d="M174.03 202.933C166.84 205.867 161.247 208.533 161.514 208.8C162.046 209.333 187.611 199.2 188.81 198C190.275 196.533 186.413 197.867 174.03 202.933Z" fill="#4C34E2"/>
<path d="M292.935 204C291.87 204.667 291.603 205.333 292.269 205.333C293.068 205.333 294.533 204.667 295.598 204C296.663 203.333 297.063 202.667 296.264 202.667C295.598 202.667 294 203.333 292.935 204Z" fill="#4C34E2"/>
<path d="M286.277 206.667C285.212 207.333 284.946 208 285.611 208C286.41 208 287.875 207.333 288.94 206.667C290.005 206 290.405 205.333 289.606 205.333C288.94 205.333 287.342 206 286.277 206.667Z" fill="#4C34E2"/>
<path d="M279.62 209.333C278.554 210 278.288 210.667 278.954 210.667C279.753 210.667 281.217 210 282.283 209.333C283.348 208.667 283.747 208 282.948 208C282.283 208 280.685 208.667 279.62 209.333Z" fill="#4C34E2"/>
<path d="M156.454 210.667C156.054 211.467 156.587 211.6 157.652 211.2C160.049 210.267 160.448 209.333 158.584 209.333C157.785 209.333 156.853 209.867 156.454 210.667Z" fill="#4C34E2"/>
<path d="M272.962 212C271.897 212.667 271.63 213.333 272.296 213.333C273.095 213.333 274.56 212.667 275.625 212C276.69 211.333 277.09 210.667 276.291 210.667C275.625 210.667 274.027 211.333 272.962 212Z" fill="#4C34E2"/>
<path d="M266.304 214.667C265.239 215.333 264.973 216 265.639 216C266.438 216 267.902 215.333 268.967 214.667C270.033 214 270.432 213.333 269.633 213.333C268.967 213.333 267.37 214 266.304 214.667Z" fill="#4C34E2"/>
<path d="M409.31 214.667C410.375 218.4 422.492 244 423.025 243.6C423.291 243.2 420.228 236.267 416.101 227.867C412.106 219.467 409.044 213.6 409.31 214.667Z" fill="#4C34E2"/>
<path d="M259.647 217.333C258.582 218 258.315 218.667 258.981 218.667C259.78 218.667 261.245 218 262.31 217.333C263.375 216.667 263.774 216 262.976 216C262.31 216 260.712 216.667 259.647 217.333Z" fill="#4C34E2"/>
<path d="M135.815 218.667C134.75 219.333 134.484 220 135.149 220C135.948 220 137.413 219.333 138.478 218.667C139.543 218 139.943 217.333 139.144 217.333C138.478 217.333 136.88 218 135.815 218.667Z" fill="#4C34E2"/>
<path d="M372.16 220.667C368.565 222.4 365.902 223.867 366.435 223.867C367.766 224 379.484 218.8 379.484 218C379.484 217.067 379.883 216.933 372.16 220.667Z" fill="#4C34E2"/>
<path d="M241.938 224.267C234.747 227.2 229.155 229.867 229.421 230.133C229.954 230.667 255.519 220.533 256.717 219.333C258.182 217.867 254.321 219.2 241.938 224.267Z" fill="#4C34E2"/>
<path d="M129.158 221.333C128.092 222 127.826 222.667 128.492 222.667C129.291 222.667 130.755 222 131.821 221.333C132.886 220.667 133.285 220 132.486 220C131.821 220 130.223 220.667 129.158 221.333Z" fill="#4C34E2"/>
<path d="M122.5 224C121.435 224.667 121.169 225.333 121.834 225.333C122.633 225.333 124.098 224.667 125.163 224C126.228 223.333 126.628 222.667 125.829 222.667C125.163 222.667 123.565 223.333 122.5 224Z" fill="#4C34E2"/>
<path d="M360.842 225.333C359.777 226 359.511 226.667 360.177 226.667C360.976 226.667 362.44 226 363.505 225.333C364.571 224.667 364.97 224 364.171 224C363.505 224 361.908 224.667 360.842 225.333Z" fill="#4C34E2"/>
<path d="M104.791 230.933C97.6006 233.867 92.0082 236.533 92.2745 236.8C92.8071 237.333 118.372 227.2 119.571 226C121.035 224.533 117.174 225.867 104.791 230.933Z" fill="#4C34E2"/>
<path d="M354.185 228C353.12 228.667 352.853 229.333 353.519 229.333C354.318 229.333 355.783 228.667 356.848 228C357.913 227.333 358.313 226.667 357.514 226.667C356.848 226.667 355.25 227.333 354.185 228Z" fill="#4C34E2"/>
<path d="M347.527 230.667C346.462 231.333 346.196 232 346.861 232C347.66 232 349.125 231.333 350.19 230.667C351.255 230 351.655 229.333 350.856 229.333C350.19 229.333 348.592 230 347.527 230.667Z" fill="#4C34E2"/>
<path d="M223.696 232C222.631 232.667 222.364 233.333 223.03 233.333C223.829 233.333 225.294 232.667 226.359 232C227.424 231.333 227.823 230.667 227.025 230.667C226.359 230.667 224.761 231.333 223.696 232Z" fill="#4C34E2"/>
<path d="M340.87 233.333C339.804 234 339.538 234.667 340.204 234.667C341.003 234.667 342.467 234 343.533 233.333C344.598 232.667 344.997 232 344.198 232C343.533 232 341.935 232.667 340.87 233.333Z" fill="#4C34E2"/>
<path d="M217.038 234.667C215.973 235.333 215.706 236 216.372 236C217.171 236 218.636 235.333 219.701 234.667C220.766 234 221.166 233.333 220.367 233.333C219.701 233.333 218.103 234 217.038 234.667Z" fill="#4C34E2"/>
<path d="M334.212 236C333.147 236.667 332.88 237.333 333.546 237.333C334.345 237.333 335.81 236.667 336.875 236C337.94 235.333 338.34 234.667 337.541 234.667C336.875 234.667 335.277 235.333 334.212 236Z" fill="#4C34E2"/>
<path d="M210.38 237.333C209.315 238 209.049 238.667 209.715 238.667C210.514 238.667 211.978 238 213.043 237.333C214.109 236.667 214.508 236 213.709 236C213.043 236 211.446 236.667 210.38 237.333Z" fill="#4C34E2"/>
<path d="M86.549 238.667C85.4838 239.333 85.2175 240 85.8832 240C86.6821 240 88.1468 239.333 89.212 238.667C90.2773 238 90.6767 237.333 89.8778 237.333C89.212 237.333 87.6142 238 86.549 238.667Z" fill="#4C34E2"/>
<path d="M327.554 238.667C326.489 239.333 326.223 240 326.889 240C327.688 240 329.152 239.333 330.217 238.667C331.283 238 331.682 237.333 330.883 237.333C330.217 237.333 328.62 238 327.554 238.667Z" fill="#4C34E2"/>
<path d="M203.723 240C202.658 240.667 202.391 241.333 203.057 241.333C203.856 241.333 205.321 240.667 206.386 240C207.451 239.333 207.851 238.667 207.052 238.667C206.386 238.667 204.788 239.333 203.723 240Z" fill="#4C34E2"/>
<path d="M309.845 245.6C302.655 248.533 297.063 251.2 297.329 251.467C297.861 252 323.427 241.867 324.625 240.667C326.09 239.2 322.228 240.533 309.845 245.6Z" fill="#4C34E2"/>
<path d="M197.065 242.667C196 243.333 195.734 244 196.399 244C197.198 244 198.663 243.333 199.728 242.667C200.793 242 201.193 241.333 200.394 241.333C199.728 241.333 198.13 242 197.065 242.667Z" fill="#4C34E2"/>
<path d="M190.408 245.333C189.342 246 189.076 246.667 189.742 246.667C190.541 246.667 192.005 246 193.071 245.333C194.136 244.667 194.535 244 193.736 244C193.071 244 191.473 244.667 190.408 245.333Z" fill="#4C34E2"/>
<path d="M423.957 246.667C425.022 250.4 437.139 276 437.671 275.6C437.938 275.2 434.875 268.267 430.747 259.867C426.753 251.467 423.69 245.6 423.957 246.667Z" fill="#4C34E2"/>
<path d="M176.027 250.933C170.701 253.2 166.573 255.2 166.84 255.467C167.372 256 186.413 248.533 187.611 247.333C188.943 245.867 185.348 247.067 176.027 250.933Z" fill="#4C34E2"/>
<path d="M161.114 257.333C160.049 258 159.783 258.667 160.448 258.667C161.247 258.667 162.712 258 163.777 257.333C164.842 256.667 165.242 256 164.443 256C163.777 256 162.179 256.667 161.114 257.333Z" fill="#4C34E2"/>
<path d="M154.457 260C153.391 260.667 153.125 261.333 153.791 261.333C154.59 261.333 156.054 260.667 157.12 260C158.185 259.333 158.584 258.667 157.785 258.667C157.12 258.667 155.522 259.333 154.457 260Z" fill="#4C34E2"/>
<path d="M271.63 261.333C270.565 262 270.299 262.667 270.965 262.667C271.764 262.667 273.228 262 274.294 261.333C275.359 260.667 275.758 260 274.959 260C274.294 260 272.696 260.667 271.63 261.333Z" fill="#4C34E2"/>
<path d="M147.799 262.667C146.734 263.333 146.467 264 147.133 264C147.932 264 149.397 263.333 150.462 262.667C151.527 262 151.927 261.333 151.128 261.333C150.462 261.333 148.864 262 147.799 262.667Z" fill="#4C34E2"/>
<path d="M264.973 264C263.908 264.667 263.641 265.333 264.307 265.333C265.106 265.333 266.571 264.667 267.636 264C268.701 263.333 269.101 262.667 268.302 262.667C267.636 262.667 266.038 263.333 264.973 264Z" fill="#4C34E2"/>
<path d="M141.141 265.333C140.076 266 139.81 266.667 140.476 266.667C141.274 266.667 142.739 266 143.804 265.333C144.87 264.667 145.269 264 144.47 264C143.804 264 142.206 264.667 141.141 265.333Z" fill="#4C34E2"/>
<path d="M247.264 270.933C240.073 273.867 234.481 276.533 234.747 276.8C235.28 277.333 260.845 267.2 262.043 266C263.508 264.533 259.647 265.867 247.264 270.933Z" fill="#4C34E2"/>
<path d="M379.484 266.667C378.418 267.333 378.152 268 378.818 268C379.617 268 381.082 267.333 382.147 266.667C383.212 266 383.611 265.333 382.812 265.333C382.147 265.333 380.549 266 379.484 266.667Z" fill="#4C34E2"/>
<path d="M134.484 268C133.418 268.667 133.152 269.333 133.818 269.333C134.617 269.333 136.082 268.667 137.147 268C138.212 267.333 138.611 266.667 137.812 266.667C137.147 266.667 135.549 267.333 134.484 268Z" fill="#4C34E2"/>
<path d="M372.826 269.333C371.761 270 371.495 270.667 372.16 270.667C372.959 270.667 374.424 270 375.489 269.333C376.554 268.667 376.954 268 376.155 268C375.489 268 373.891 268.667 372.826 269.333Z" fill="#4C34E2"/>
<path d="M127.826 270.667C126.761 271.333 126.495 272 127.16 272C127.959 272 129.424 271.333 130.489 270.667C131.554 270 131.954 269.333 131.155 269.333C130.489 269.333 128.891 270 127.826 270.667Z" fill="#4C34E2"/>
<path d="M366.168 272C365.103 272.667 364.837 273.333 365.503 273.333C366.302 273.333 367.766 272.667 368.832 272C369.897 271.333 370.296 270.667 369.497 270.667C368.832 270.667 367.234 271.333 366.168 272Z" fill="#4C34E2"/>
<path d="M112.913 276.533C107.321 278.8 102.261 281.2 101.595 281.867C100.397 282.933 111.715 278.667 120.503 274.667C129.291 270.667 123.965 271.867 112.913 276.533Z" fill="#4C34E2"/>
<path d="M359.511 274.667C358.446 275.333 358.179 276 358.845 276C359.644 276 361.109 275.333 362.174 274.667C363.239 274 363.639 273.333 362.84 273.333C362.174 273.333 360.576 274 359.511 274.667Z" fill="#4C34E2"/>
<path d="M352.853 277.333C351.788 278 351.522 278.667 352.188 278.667C352.986 278.667 354.451 278 355.516 277.333C356.582 276.667 356.981 276 356.182 276C355.516 276 353.919 276.667 352.853 277.333Z" fill="#4C34E2"/>
<path d="M229.022 278.667C227.957 279.333 227.69 280 228.356 280C229.155 280 230.62 279.333 231.685 278.667C232.75 278 233.149 277.333 232.351 277.333C231.685 277.333 230.087 278 229.022 278.667Z" fill="#4C34E2"/>
<path d="M438.204 278C438.204 278.667 439.935 282.667 442.065 286.667C444.196 290.667 445.927 293.333 445.927 292.667C445.927 291.867 444.196 288 442.065 284C439.935 280 438.204 277.2 438.204 278Z" fill="#4C34E2"/>
<path d="M346.196 280C345.13 280.667 344.864 281.333 345.53 281.333C346.329 281.333 347.793 280.667 348.859 280C349.924 279.333 350.323 278.667 349.524 278.667C348.859 278.667 347.261 279.333 346.196 280Z" fill="#4C34E2"/>
<path d="M222.364 281.333C221.299 282 221.033 282.667 221.698 282.667C222.497 282.667 223.962 282 225.027 281.333C226.092 280.667 226.492 280 225.693 280C225.027 280 223.429 280.667 222.364 281.333Z" fill="#4C34E2"/>
<path d="M339.538 282.667C338.473 283.333 338.207 284 338.872 284C339.671 284 341.136 283.333 342.201 282.667C343.266 282 343.666 281.333 342.867 281.333C342.201 281.333 340.603 282 339.538 282.667Z" fill="#4C34E2"/>
<path d="M215.707 284C214.641 284.667 214.375 285.333 215.041 285.333C215.84 285.333 217.304 284.667 218.37 284C219.435 283.333 219.834 282.667 219.035 282.667C218.37 282.667 216.772 283.333 215.707 284Z" fill="#4C34E2"/>
<path d="M321.829 289.6C314.639 292.533 309.046 295.2 309.312 295.467C309.845 296 335.41 285.867 336.609 284.667C338.073 283.2 334.212 284.533 321.829 289.6Z" fill="#4C34E2"/>
<path d="M209.049 286.667C207.984 287.333 207.717 288 208.383 288C209.182 288 210.647 287.333 211.712 286.667C212.777 286 213.177 285.333 212.378 285.333C211.712 285.333 210.114 286 209.049 286.667Z" fill="#4C34E2"/>
<path d="M202.391 289.333C201.326 290 201.06 290.667 201.726 290.667C202.524 290.667 203.989 290 205.054 289.333C206.12 288.667 206.519 288 205.72 288C205.054 288 203.456 288.667 202.391 289.333Z" fill="#4C34E2"/>
<path d="M195.734 292C194.669 292.667 194.402 293.333 195.068 293.333C195.867 293.333 197.332 292.667 198.397 292C199.462 291.333 199.862 290.667 199.063 290.667C198.397 290.667 196.799 291.333 195.734 292Z" fill="#4C34E2"/>
<path d="M178.024 298.933C170.834 301.867 165.242 304.533 165.508 304.8C166.041 305.333 191.606 295.2 192.804 294C194.269 292.533 190.408 293.867 178.024 298.933Z" fill="#4C34E2"/>
<path d="M446.592 296C447.658 299.733 459.774 325.333 460.307 324.933C460.573 324.533 457.511 317.6 453.383 309.2C449.389 300.8 446.326 294.933 446.592 296Z" fill="#4C34E2"/>
<path d="M303.587 297.333C302.522 298 302.255 298.667 302.921 298.667C303.72 298.667 305.185 298 306.25 297.333C307.315 296.667 307.715 296 306.916 296C306.25 296 304.652 296.667 303.587 297.333Z" fill="#4C34E2"/>
<path d="M296.929 300C295.864 300.667 295.598 301.333 296.264 301.333C297.063 301.333 298.527 300.667 299.592 300C300.658 299.333 301.057 298.667 300.258 298.667C299.592 298.667 297.995 299.333 296.929 300Z" fill="#4C34E2"/>
<path d="M290.272 302.667C289.207 303.333 288.94 304 289.606 304C290.405 304 291.87 303.333 292.935 302.667C294 302 294.399 301.333 293.601 301.333C292.935 301.333 291.337 302 290.272 302.667Z" fill="#4C34E2"/>
<path d="M283.614 305.333C282.549 306 282.283 306.667 282.948 306.667C283.747 306.667 285.212 306 286.277 305.333C287.342 304.667 287.742 304 286.943 304C286.277 304 284.679 304.667 283.614 305.333Z" fill="#4C34E2"/>
<path d="M159.783 306.667C158.717 307.333 158.451 308 159.117 308C159.916 308 161.38 307.333 162.446 306.667C163.511 306 163.91 305.333 163.111 305.333C162.446 305.333 160.848 306 159.783 306.667Z" fill="#4C34E2"/>
<path d="M276.957 308C275.891 308.667 275.625 309.333 276.291 309.333C277.09 309.333 278.554 308.667 279.62 308C280.685 307.333 281.084 306.667 280.285 306.667C279.62 306.667 278.022 307.333 276.957 308Z" fill="#4C34E2"/>
<path d="M153.125 309.333C152.06 310 151.794 310.667 152.459 310.667C153.258 310.667 154.723 310 155.788 309.333C156.853 308.667 157.253 308 156.454 308C155.788 308 154.19 308.667 153.125 309.333Z" fill="#4C34E2"/>
<path d="M259.247 314.933C252.057 317.867 246.465 320.533 246.731 320.8C247.264 321.333 272.829 311.2 274.027 310C275.492 308.533 271.631 309.867 259.247 314.933Z" fill="#4C34E2"/>
<path d="M146.467 312C145.402 312.667 145.136 313.333 145.802 313.333C146.601 313.333 148.065 312.667 149.13 312C150.196 311.333 150.595 310.667 149.796 310.667C149.13 310.667 147.533 311.333 146.467 312Z" fill="#4C34E2"/>
<path d="M139.81 314.667C138.745 315.333 138.478 316 139.144 316C139.943 316 141.408 315.333 142.473 314.667C143.538 314 143.938 313.333 143.139 313.333C142.473 313.333 140.875 314 139.81 314.667Z" fill="#4C34E2"/>
<path d="M133.152 317.333C132.087 318 131.821 318.667 132.487 318.667C133.285 318.667 134.75 318 135.815 317.333C136.881 316.667 137.28 316 136.481 316C135.815 316 134.217 316.667 133.152 317.333Z" fill="#4C34E2"/>
<path d="M126.495 320C125.429 320.667 125.163 321.333 125.829 321.333C126.628 321.333 128.092 320.667 129.158 320C130.223 319.333 130.622 318.667 129.823 318.667C129.158 318.667 127.56 319.333 126.495 320Z" fill="#4C34E2"/>
<path d="M241.006 322.667C239.94 323.333 239.674 324 240.34 324C241.139 324 242.603 323.333 243.669 322.667C244.734 322 245.133 321.333 244.334 321.333C243.669 321.333 242.071 322 241.006 322.667Z" fill="#4C34E2"/>
<path d="M234.348 325.333C233.283 326 233.016 326.667 233.682 326.667C234.481 326.667 235.946 326 237.011 325.333C238.076 324.667 238.476 324 237.677 324C237.011 324 235.413 324.667 234.348 325.333Z" fill="#4C34E2"/>
<path d="M227.69 328C226.625 328.667 226.359 329.333 227.024 329.333C227.823 329.333 229.288 328.667 230.353 328C231.418 327.333 231.818 326.667 231.019 326.667C230.353 326.667 228.755 327.333 227.69 328Z" fill="#4C34E2"/>
<path d="M460.84 327.333C460.84 328 462.571 332 464.701 336C466.832 340 468.563 342.667 468.563 342C468.563 341.2 466.832 337.333 464.701 333.333C462.571 329.333 460.84 326.533 460.84 327.333Z" fill="#4C34E2"/>
<path d="M221.033 330.667C219.967 331.333 219.701 332 220.367 332C221.166 332 222.63 331.333 223.696 330.667C224.761 330 225.16 329.333 224.361 329.333C223.696 329.333 222.098 330 221.033 330.667Z" fill="#4C34E2"/>
<path d="M214.375 333.333C213.31 334 213.044 334.667 213.709 334.667C214.508 334.667 215.973 334 217.038 333.333C218.103 332.667 218.503 332 217.704 332C217.038 332 215.44 332.667 214.375 333.333Z" fill="#4C34E2"/>
<path d="M207.717 336C206.652 336.667 206.386 337.333 207.052 337.333C207.851 337.333 209.315 336.667 210.38 336C211.446 335.333 211.845 334.667 211.046 334.667C210.38 334.667 208.783 335.333 207.717 336Z" fill="#4C34E2"/>
<path d="M190.008 342.933C182.818 345.867 177.226 348.533 177.492 348.8C178.025 349.333 203.59 339.2 204.788 338C206.253 336.533 202.391 337.867 190.008 342.933Z" fill="#4C34E2"/>
<path d="M469.228 345.333C470.294 349.067 482.41 374.667 482.943 374.267C483.209 373.867 480.147 366.933 476.019 358.533C472.024 350.133 468.962 344.267 469.228 345.333Z" fill="#4C34E2"/>
<path d="M171.766 350.667C170.701 351.333 170.435 352 171.101 352C171.899 352 173.364 351.333 174.429 350.667C175.495 350 175.894 349.333 175.095 349.333C174.429 349.333 172.831 350 171.766 350.667Z" fill="#4C34E2"/>
<path d="M165.109 353.333C164.043 354 163.777 354.667 164.443 354.667C165.242 354.667 166.707 354 167.772 353.333C168.837 352.667 169.236 352 168.437 352C167.772 352 166.174 352.667 165.109 353.333Z" fill="#4C34E2"/>
<path d="M158.451 356C157.386 356.667 157.12 357.333 157.785 357.333C158.584 357.333 160.049 356.667 161.114 356C162.179 355.333 162.579 354.667 161.78 354.667C161.114 354.667 159.516 355.333 158.451 356Z" fill="#4C34E2"/>
<path d="M275.625 357.333C274.56 358 274.294 358.667 274.959 358.667C275.758 358.667 277.223 358 278.288 357.333C279.353 356.667 279.753 356 278.954 356C278.288 356 276.69 356.667 275.625 357.333Z" fill="#4C34E2"/>
<path d="M151.793 358.667C150.728 359.333 150.462 360 151.128 360C151.927 360 153.391 359.333 154.457 358.667C155.522 358 155.921 357.333 155.122 357.333C154.457 357.333 152.859 358 151.793 358.667Z" fill="#4C34E2"/>
<path d="M261.245 362.933C255.919 365.2 251.791 367.2 252.057 367.467C252.59 368 271.63 360.533 272.829 359.333C274.16 357.867 270.565 359.067 261.245 362.933Z" fill="#4C34E2"/>
<path d="M145.136 361.333C144.071 362 143.804 362.667 144.47 362.667C145.269 362.667 146.734 362 147.799 361.333C148.864 360.667 149.264 360 148.465 360C147.799 360 146.201 360.667 145.136 361.333Z" fill="#4C34E2"/>
<path d="M246.332 369.333C245.266 370 245 370.667 245.666 370.667C246.465 370.667 247.929 370 248.995 369.333C250.06 368.667 250.459 368 249.66 368C248.995 368 247.397 368.667 246.332 369.333Z" fill="#4C34E2"/>
<path d="M239.674 372C238.609 372.667 238.342 373.333 239.008 373.333C239.807 373.333 241.272 372.667 242.337 372C243.402 371.333 243.802 370.667 243.003 370.667C242.337 370.667 240.739 371.333 239.674 372Z" fill="#4C34E2"/>
<path d="M233.016 374.667C231.951 375.333 231.685 376 232.351 376C233.149 376 234.614 375.333 235.679 374.667C236.745 374 237.144 373.333 236.345 373.333C235.679 373.333 234.081 374 233.016 374.667Z" fill="#4C34E2"/>
<path d="M226.359 377.333C225.293 378 225.027 378.667 225.693 378.667C226.492 378.667 227.957 378 229.022 377.333C230.087 376.667 230.486 376 229.687 376C229.022 376 227.424 376.667 226.359 377.333Z" fill="#4C34E2"/>
<path d="M219.701 380C218.636 380.667 218.37 381.333 219.035 381.333C219.834 381.333 221.299 380.667 222.364 380C223.429 379.333 223.829 378.667 223.03 378.667C222.364 378.667 220.766 379.333 219.701 380Z" fill="#4C34E2"/>
<path d="M213.043 382.667C211.978 383.333 211.712 384 212.378 384C213.177 384 214.641 383.333 215.707 382.667C216.772 382 217.171 381.333 216.372 381.333C215.707 381.333 214.109 382 213.043 382.667Z" fill="#4C34E2"/>
<path d="M195.334 389.6C188.144 392.533 182.552 395.2 182.818 395.467C183.351 396 208.916 385.867 210.114 384.667C211.579 383.2 207.717 384.533 195.334 389.6Z" fill="#4C34E2"/>
<path d="M177.092 397.333C176.027 398 175.761 398.667 176.427 398.667C177.226 398.667 178.69 398 179.755 397.333C180.821 396.667 181.22 396 180.421 396C179.755 396 178.158 396.667 177.092 397.333Z" fill="#4C34E2"/>
<path d="M170.435 400C169.37 400.667 169.103 401.333 169.769 401.333C170.568 401.333 172.033 400.667 173.098 400C174.163 399.333 174.563 398.667 173.764 398.667C173.098 398.667 171.5 399.333 170.435 400Z" fill="#4C34E2"/>
<path d="M163.777 402.667C162.712 403.333 162.446 404 163.112 404C163.91 404 165.375 403.333 166.44 402.667C167.506 402 167.905 401.333 167.106 401.333C166.44 401.333 164.842 402 163.777 402.667Z" fill="#4C34E2"/>
</svg>
