<svg width="390" height="353" viewBox="0 0 390 353" fill="none" xmlns="http://www.w3.org/2000/svg">
<path d="M121.255 0.643226C120.083 0.856299 116.674 3.73279 113.797 7.03542C105.381 16.7302 95.4732 26.1055 84.0738 35.2676C78.2143 39.9552 67.9868 49.2239 61.275 55.7226C46.5729 70.1051 46.6795 70.1051 41.4592 73.9404C39.1154 75.645 36.0258 78.0953 34.5343 79.3737C24.2003 88.5359 20.2584 92.1581 11.0963 101.107C5.44982 106.647 0.4426 112.08 0.122991 113.146C-0.835838 115.916 3.95831 127.954 9.39167 136.158C11.9485 139.993 14.9316 144.894 15.8904 146.918C16.9558 148.942 20.0453 153.949 22.8153 158.104C25.5852 162.153 29.2075 167.906 30.8055 170.889C32.5101 173.765 36.3454 180.157 39.5415 184.951C42.6311 189.852 45.1879 194.007 45.1879 194.327C45.1879 194.646 49.3429 200.506 54.3501 207.431C59.3573 214.249 65.3234 222.985 67.6672 226.82C69.9044 230.656 72.994 235.13 74.592 236.941C77.8947 240.777 83.328 249.619 95.2601 270.287C100.054 278.597 104.529 286.055 105.275 286.8C106.02 287.44 106.873 288.825 107.299 289.677C107.725 290.529 109.003 292.66 110.175 294.471C111.241 296.176 113.158 299.585 114.224 301.929C117.952 309.706 143.841 342.626 153.003 351.148C155.24 353.279 155.773 353.386 158.649 352.107C165.468 349.231 169.729 347.846 183.153 344.437C200.412 340.069 214.155 336.02 223.104 332.718C235.143 328.35 246.862 324.727 252.402 323.662C255.278 323.129 262.416 320.572 268.382 318.016C274.242 315.352 283.83 312.05 289.689 310.451C295.549 308.96 303.752 306.51 307.801 305.125C316.004 302.248 323.248 300.437 340.294 296.708C346.473 295.323 355.316 292.447 359.897 290.316C364.585 288.185 370.87 285.735 374.066 284.776C377.156 283.924 379.926 282.645 380.245 282.113C380.672 281.58 381.737 281.154 382.802 281.154C383.974 281.154 385.892 280.302 387.17 279.236L389.621 277.212L386.851 271.459C385.359 268.263 382.696 263.788 380.885 261.445C379.18 259.101 376.197 254.52 374.279 251.324C372.468 248.128 367.674 241.096 363.839 235.876C359.897 230.549 354.996 223.624 352.759 220.428C350.628 217.232 347.113 212.651 345.088 210.307C341.466 206.365 331.771 190.598 331.771 188.787C331.771 188.148 325.486 178.133 320.052 170.356C303.539 146.279 287.346 121.03 283.936 113.892C279.462 104.41 272.004 90.347 271.045 89.3882C270.726 89.0686 269.66 87.1509 268.595 85.1267C267.423 83.1025 265.932 80.226 265.186 78.7345C264.334 77.243 261.777 72.2358 259.539 67.5482C250.697 49.65 242.174 37.1853 238.765 37.1853C238.019 37.1853 235.569 38.1441 233.225 39.316C230.881 40.4879 227.365 41.4467 225.235 41.4467C223.104 41.4467 218.31 43.0448 214.048 45.1755C210 47.1997 203.288 49.5435 199.133 50.5023C195.085 51.3546 188.586 52.8461 184.751 53.6984C180.916 54.5507 175.695 55.9357 173.138 56.8945C170.581 57.7468 168.131 58.4926 167.705 58.4926C166.746 58.4926 156.838 44.9624 151.192 36.2264C149.487 33.4565 145.865 28.2362 143.202 24.6139C140.538 21.0982 137.129 16.091 135.531 13.5341C132.228 8.10078 125.197 -0.209066 124.238 0.00400685C123.812 0.110543 122.533 0.430153 121.255 0.643226ZM128.713 13.7472C131.483 17.7956 134.572 22.3767 135.318 23.9747C136.17 25.4662 138.62 28.9819 140.858 31.7519C143.095 34.4153 146.078 38.5702 147.57 40.914C148.955 43.2578 152.364 48.2651 155.24 51.9938C158.01 55.7226 160.141 58.9187 159.821 59.2383C159.289 59.771 152.577 61.5821 149.061 62.1148C133.72 64.4586 121.362 67.4416 94.7274 75.5384C73.3136 81.9306 68.5194 83.4221 62.7665 85.2332C59.2508 86.4051 55.6285 87.577 54.7762 87.7901C48.8102 89.1751 30.0598 96.6327 22.3891 100.681C20.6845 101.533 19.0865 101.959 18.7669 101.746C18.0211 100.894 25.4787 93.33 32.297 88.0032C48.8102 75.0057 60.3161 64.9913 67.0279 57.7468C71.1829 53.2723 79.4927 45.6016 85.6718 40.701C98.8824 30.0473 114.437 15.1322 114.437 13.108C114.437 12.2557 115.182 11.6165 116.035 11.6165C116.887 11.6165 117.633 10.9773 117.633 10.2315C117.633 9.16615 120.829 6.92888 122.96 6.3962C123.279 6.3962 125.836 9.69883 128.713 13.7472ZM245.796 53.9115C248.992 59.6645 253.573 68.1874 255.811 72.875C260.605 82.4633 275.413 109.843 276.372 110.695C276.692 111.015 278.183 114.211 279.781 117.833C281.912 122.947 308.014 164.07 312.701 169.717C315.258 172.806 324.633 188.148 329.108 196.564C331.878 201.784 335.394 207.431 336.778 209.242C350.202 226.075 381.843 271.885 381.843 274.549C381.843 275.508 376.197 278.171 367.887 281.047C364.585 282.113 358.725 284.457 354.57 286.268C350.522 288.079 341.466 290.742 334.435 292.34C327.403 293.938 313.873 297.561 304.391 300.437C294.91 303.314 284.789 306.19 282.019 306.829C279.249 307.575 272.111 310.238 266.251 312.795C260.392 315.352 252.934 318.016 249.738 318.548C243.452 319.72 232.586 323.129 223.104 326.965C219.908 328.35 214.155 330.267 210.32 331.333C206.484 332.398 199.453 334.422 194.552 335.914C189.652 337.405 183.685 338.897 181.235 339.216C176.761 339.962 166.32 343.904 161.206 346.887C158.436 348.485 158.33 348.485 154.281 343.904C151.938 341.347 147.783 336.766 145.013 333.57C136.49 323.982 119.977 301.716 119.87 299.585C119.764 298.946 119.444 298.2 119.018 297.987C118.485 297.774 116.994 295.536 115.609 292.873C114.224 290.21 110.601 284.244 107.512 279.556C104.422 274.868 100.587 268.37 98.7758 265.173C90.9987 250.791 85.0326 240.883 82.0496 237.367C80.2385 235.343 76.6162 230.123 73.9528 225.861C67.9868 216.06 64.4711 211.692 63.1926 212.438C62.6599 212.864 62.5534 212.438 62.873 211.586C63.1926 210.733 61.1684 207.218 58.505 203.702C55.8416 200.08 53.7109 196.777 53.7109 196.138C53.7109 195.499 53.2847 194.859 52.8586 194.646C52.0063 194.327 42.2049 178.879 37.9435 171.102C36.665 168.758 34.8539 165.988 34.0016 165.029C33.1493 164.07 32.4036 162.898 32.4036 162.366C32.4036 161.94 31.1251 159.809 29.4205 157.678C25.1591 152.032 18.5538 141.698 18.5538 140.526C18.5538 139.993 17.7015 138.928 16.7427 138.182C15.6773 137.436 13.9727 134.986 13.0139 132.749C11.9485 130.511 10.3505 128.487 9.49821 128.167C8.64591 127.741 7.90016 127.102 7.90016 126.463C7.90016 125.93 6.94133 123.586 5.87596 121.243L3.85177 117.088L8.75245 114.318C11.5224 112.933 15.3577 110.695 17.1688 109.524C20.578 107.393 31.1251 102.705 45.7206 96.7392C49.8756 95.1411 58.1854 92.2647 64.3645 90.4535C70.5436 88.6424 80.8777 85.5529 87.2699 83.5287C93.7686 81.611 101.652 79.1607 104.848 78.2018C108.045 77.243 111.667 76.0711 112.839 75.5384C114.011 75.0057 117.633 74.0469 120.829 73.3011C124.025 72.6619 127.541 71.5966 128.5 71.1704C129.458 70.6377 133.507 69.7854 137.555 69.1462C145.865 67.9743 149.274 67.3351 155.986 65.8436C158.649 65.2044 162.698 64.5652 164.935 64.2455C167.279 64.0325 171.966 62.8606 175.376 61.6887C178.785 60.5168 182.727 59.5579 184.005 59.5579C185.39 59.5579 188.586 58.9187 191.25 58.0664C193.806 57.3207 198.601 56.0422 201.797 55.2965C204.993 54.5507 208.189 53.6984 208.722 53.2723C209.361 52.9527 210 52.6331 210.32 52.6331C212.131 52.3135 216.392 50.6089 217.671 49.5435C218.843 48.5847 235.143 44.0036 238.658 43.684C239.404 43.5775 242.6 48.2651 245.796 53.9115Z" fill="#4C34E2"/>
<path d="M223.211 61.7952C219.482 62.5409 217.777 64.2455 217.777 67.0155C217.777 67.9743 217.351 69.1462 216.818 69.6789C216.179 70.3181 215.327 72.6619 214.688 75.0057C212.131 85.3398 209.893 92.5843 206.591 101.107C204.673 106.114 199.772 120.177 195.937 132.535C191.995 144.787 187.84 157.785 186.775 161.194C185.603 164.71 184.751 168.332 184.751 169.291C184.751 170.249 184.325 171.421 183.899 171.954C183.366 172.593 182.3 175.789 181.555 179.092C179.531 187.934 179.104 188.254 174.949 185.165C173.032 183.673 169.09 181.329 166.107 179.944C163.23 178.559 158.436 175.896 155.453 174.085C152.577 172.167 148.422 169.717 146.398 168.545C142.775 166.521 142.669 166.308 142.562 159.596C142.243 142.337 140.538 139.354 119.231 120.816C109.856 112.72 101.226 107.499 96.7517 107.499C94.3013 107.499 88.8679 112.72 88.8679 115.063C88.9745 117.727 91.5314 120.177 103.357 128.807C109.749 133.388 116.781 138.502 118.911 140.206C123.386 143.509 127.434 148.729 124.877 147.77C123.066 147.024 108.045 136.371 102.185 131.577C99.8412 129.659 96.219 127.422 93.9817 126.676C90.5725 125.398 89.7202 125.504 87.3764 126.996C84.0738 129.233 82.7954 133.494 84.6065 135.732C85.3522 136.69 92.064 142.124 99.4151 147.877C117.313 161.94 122.32 167.266 108.045 157.252C81.73 138.821 80.2385 138.182 74.1659 143.615C72.3548 145.426 70.7567 147.238 70.7567 147.664C70.7567 149.262 78.3208 155.974 85.1392 160.555C91.5314 164.71 95.3667 168.225 93.5556 168.225C93.0229 168.119 90.6791 166.734 88.3353 165.029C80.4516 159.383 70.011 153.31 66.6018 152.245C63.6188 151.392 62.7665 151.606 60.5292 153.843C58.8246 155.547 57.9724 157.572 57.9724 160.235C57.9724 163.644 58.505 164.283 63.5123 167.373C66.6018 169.291 72.2482 172.913 76.0836 175.576C79.8123 178.133 86.3111 181.862 90.3595 183.78C97.3909 187.189 98.1366 187.295 106.34 186.763C111.134 186.443 116.461 185.484 118.165 184.845C124.132 182.395 129.458 181.755 131.376 183.46C132.335 184.312 138.621 187.934 145.332 191.45C152.044 194.966 160.674 199.76 164.509 202.104C172.499 207.005 172.606 207.218 168.877 220.428C161.313 247.488 159.928 252.069 159.182 253.987C158.649 255.159 156.732 262.084 154.814 269.435C153.003 276.786 150.872 283.498 150.126 284.35C149.381 285.202 148.528 287.866 148.102 290.21C147.783 292.553 147.143 295.963 146.824 297.774C145.972 302.142 149.807 304.699 157.584 304.912C164.935 305.018 167.492 303.314 171.647 294.897C177.719 282.645 179.637 275.401 181.022 260.379C181.768 251.963 186.455 230.443 188.48 225.968C189.332 224.05 190.078 221.6 190.078 220.428C190.078 219.363 190.504 218.191 191.036 217.871C192.102 217.125 213.09 228.205 221.612 233.958C229.816 239.498 247.714 248.341 249.419 247.701C250.164 247.382 250.697 247.701 250.484 248.341C250.377 248.98 251.762 249.939 253.467 250.578C255.278 251.111 258.048 252.815 259.753 254.2C264.227 257.929 276.905 264.108 280.101 264.108C284.256 264.108 289.583 253.774 286.919 250.684C285.961 249.513 269.66 239.818 265.719 238.113C264.866 237.794 262.203 236.302 259.859 235.024C257.515 233.639 250.377 229.697 243.879 226.288C237.486 222.878 231.733 219.789 231.094 219.363C229.496 218.191 210 207.111 208.189 206.259C207.337 205.939 204.247 204.235 201.264 202.53C197.003 200.08 195.937 198.908 196.15 196.884C196.789 187.402 197.748 181.329 198.92 180.264C199.666 179.625 203.608 178.133 207.763 176.961C212.983 175.576 216.605 173.872 219.375 171.315C229.177 162.685 229.177 162.579 232.799 140.526C234.93 127.315 235.036 123.906 234.29 98.9765C233.758 76.4972 233.225 71.0639 231.733 67.5482C229.177 61.9017 227.579 60.8364 223.211 61.7952ZM226.833 71.49C229.39 80.3326 229.603 126.889 227.152 141.591C224.382 158.317 223.424 160.661 217.884 166.201C212.237 171.847 209.467 173.552 205.525 173.552C202.436 173.552 195.404 176.855 193.38 179.198C192.741 180.051 191.889 182.927 191.569 185.484C191.356 187.934 190.93 191.131 190.61 192.409C190.078 194.646 189.971 194.753 186.882 192.942C184.751 191.77 183.899 190.598 184.325 189.319C184.538 188.361 185.07 186.656 185.284 185.591C187.947 174.511 191.143 164.177 199.666 138.395C201.903 131.683 204.46 123.693 205.312 120.816C206.271 117.833 208.935 109.95 211.385 103.238C216.073 90.2405 220.014 77.9887 222.039 70.4247C222.678 67.9743 223.637 65.9501 224.169 65.9501C224.702 65.9501 225.874 68.507 226.833 71.49ZM104.848 115.916C106.34 116.875 113.584 122.734 120.935 129.02C136.383 142.23 136.809 142.976 136.916 159.702C137.022 169.93 137.555 171.102 143.734 173.765C145.545 174.617 149.594 176.855 152.79 178.985C155.986 181.01 160.354 183.46 162.378 184.206C164.402 185.058 170.581 188.68 176.015 192.409C181.555 196.138 186.349 199.121 186.668 199.121C187.095 199.121 189.865 200.932 192.741 203.169C195.724 205.406 203.075 209.988 209.254 213.29C215.433 216.593 222.358 220.535 224.702 222.026C228.75 224.583 238.232 229.377 248.673 234.065C251.336 235.343 254.958 237.154 256.663 238.113C261.777 240.99 262.736 241.522 268.702 244.505C271.685 246.103 274.242 247.808 274.242 248.341C274.242 248.767 274.881 249.193 275.627 249.193C276.266 249.3 278.29 250.365 279.888 251.75C283.404 254.626 283.51 258.355 280.101 258.142C277.757 257.929 271.152 255.479 269.447 254.2C268.915 253.774 266.251 251.75 263.588 249.726C260.924 247.701 258.261 245.997 257.515 245.997C255.491 245.997 228.644 232.041 221.506 227.353C213.622 222.133 211.065 220.641 199.666 214.782C184.538 207.005 171.54 199.973 168.77 198.055C165.361 195.605 160.674 193.048 146.717 185.697C140.538 182.501 134.466 179.198 133.187 178.453C130.524 176.748 124.984 177.068 119.231 179.198C116.887 180.051 111.028 181.116 106.34 181.542C97.817 182.181 97.4974 182.181 90.3595 178.453C77.5751 171.954 62.7665 161.62 62.4469 158.85C62.1273 157.145 62.66 156.506 64.1515 156.506C65.3234 156.506 66.8149 157.145 67.4541 157.998C68.626 159.489 86.2045 170.356 87.2699 170.356C87.483 170.356 90.6791 172.274 94.3013 174.617C97.9236 176.961 101.972 178.879 103.357 178.879C105.914 178.879 110.814 173.659 109.43 172.487C109.003 172.061 102.611 167.373 95.2601 162.153C87.9091 156.826 80.5581 151.179 78.9601 149.475L75.8705 146.492L78.6404 145.533C81.5169 144.574 83.9673 145.959 104.529 160.874C116.141 169.291 119.764 170.143 121.894 165.136C122.853 162.685 122.853 161.62 121.681 159.809C120.935 158.53 120.083 157.572 119.764 157.572C119.444 157.572 117.739 156.293 115.928 154.589C114.224 152.99 107.938 148.196 102.078 144.041C96.219 139.78 90.5725 135.412 89.6137 134.347C87.9091 132.429 87.9091 132.216 89.8268 130.511C91.7444 128.7 92.1706 128.913 99.6281 135.518C108.577 143.296 121.255 152.032 124.877 152.99C128.286 153.843 131.909 149.901 131.056 146.385C130.204 143.189 115.076 129.872 103.25 121.882C98.2432 118.579 94.1948 115.17 94.1948 114.424C94.1948 111.441 98.2432 111.974 104.848 115.916ZM99.9477 170.889C101.12 171.741 101.546 172.487 101.013 172.487C100.374 172.487 98.9889 171.741 97.817 170.889C96.7517 170.036 96.3255 169.397 96.8582 169.397C97.4974 169.397 98.8824 170.036 99.9477 170.889ZM184.644 213.61C185.923 214.782 185.816 215.954 183.685 221.707C182.3 225.435 180.276 233.426 179.211 239.605C178.039 245.784 176.974 251.75 176.761 252.922C176.548 254.094 175.802 259.101 175.163 264.108C174.523 269.115 173.671 274.336 173.138 275.827C172.606 277.319 171.434 281.154 170.368 284.563C169.41 287.866 167.279 292.766 165.574 295.43C162.911 299.585 161.952 300.331 158.969 300.331C152.577 300.331 152.044 299.265 154.708 291.062C155.879 287.12 158.01 279.236 159.289 273.696C160.567 268.156 161.952 262.617 162.485 261.445C162.911 260.273 163.657 257.609 164.083 255.585C164.402 253.561 165.148 251.324 165.681 250.791C166.107 250.152 166.959 247.701 167.598 245.464C168.131 243.12 169.623 237.58 170.901 233.212C172.073 228.845 173.245 224.263 173.458 223.092C173.671 221.92 174.736 218.51 175.695 215.421C177.4 210.094 177.613 209.988 180.276 211.053C181.874 211.799 183.792 212.864 184.644 213.61Z" fill="#4C34E2"/>
</svg>
